<?xml version="1.0" encoding="utf-8"?>
<!-- Generator: Adobe Illustrator 24.0.1, SVG Export Plug-In . SVG Version: 6.00 Build 0)  -->
<!DOCTYPE svg PUBLIC "-//W3C//DTD SVG 1.1//EN" "http://www.w3.org/Graphics/SVG/1.1/DTD/svg11.dtd" [
	<!ENTITY ns_extend "http://ns.adobe.com/Extensibility/1.0/">
	<!ENTITY ns_ai "http://ns.adobe.com/AdobeIllustrator/10.0/">
	<!ENTITY ns_graphs "http://ns.adobe.com/Graphs/1.0/">
	<!ENTITY ns_vars "http://ns.adobe.com/Variables/1.0/">
	<!ENTITY ns_imrep "http://ns.adobe.com/ImageReplacement/1.0/">
	<!ENTITY ns_sfw "http://ns.adobe.com/SaveForWeb/1.0/">
	<!ENTITY ns_custom "http://ns.adobe.com/GenericCustomNamespace/1.0/">
	<!ENTITY ns_adobe_xpath "http://ns.adobe.com/XPath/1.0/">
]>
<svg version="1.1" id="Layer_1" xmlns:x="&ns_extend;" xmlns:i="&ns_ai;" xmlns:graph="&ns_graphs;"
	 xmlns="http://www.w3.org/2000/svg" xmlns:xlink="http://www.w3.org/1999/xlink" x="0px" y="0px" width="277.1px" height="88.6px"
	 viewBox="0 0 277.1 88.6" style="enable-background:new 0 0 277.1 88.6;" xml:space="preserve">
<style type="text/css">
	.st0{fill:#00003A;}
	.st1{fill:none;stroke:#29AAE1;stroke-miterlimit:10;}
	.st2{fill:none;stroke:#0071BB;stroke-miterlimit:10;}
	.st3{fill:#0071BB;}
</style>
<metadata>
	<sfw  xmlns="&ns_sfw;">
		<slices></slices>
		<sliceSourceBounds  bottomLeftOrigin="true" height="68.6" width="254.1" x="553.9" y="-535.2"></sliceSourceBounds>
	</sfw>
</metadata>
<symbol  id="logo" viewBox="-87.4 -23.3 173.4 46.9">
	<g>
		<path class="st0" d="M-30.1,9.5c0.2,0,0.3-0.1,0.3-0.3V-6.2c0-0.2,0-0.3-0.1-0.4c-0.1-0.1-0.2-0.1-0.4-0.1h-2.3
			c-0.2,0-0.3,0-0.3,0.1C-33-6.6-33-6.5-33-6.3V9.1c0,0.2,0.1,0.4,0.3,0.4H-30.1z"/>
		<path class="st0" d="M-26.6-6.6c-0.1,0.1-0.1,0.2-0.1,0.3V4.5c0,0.2,0.1,0.4,0.3,0.4h2.2c0.2,0,0.3-0.1,0.3-0.3V3.4
			c0-0.1,0-0.1,0.1-0.2c0,0,0.1,0,0.2,0.1c0.7,0.6,1.3,1,1.9,1.3c0.6,0.3,1.2,0.4,1.9,0.4c1.1,0,1.9-0.3,2.5-0.9s0.9-1.4,0.9-2.5
			v-7.9c0-0.3-0.2-0.5-0.5-0.5h-2c-0.1,0-0.2,0-0.3,0.1c-0.1,0.1-0.1,0.2-0.1,0.3v7.5c0,0.6-0.2,1-0.5,1.3C-20.1,2.8-20.5,3-21.1,3
			c-0.5,0-1-0.1-1.4-0.3c-0.4-0.2-0.9-0.6-1.4-1.1v-7.8c0-0.2,0-0.3-0.1-0.3c-0.1-0.1-0.2-0.1-0.4-0.1h-1.9
			C-26.5-6.7-26.6-6.7-26.6-6.6z"/>
		<path class="st0" d="M-6.1-6.3v0.7c0,0.1,0,0.2-0.1,0.2c0,0-0.1,0-0.2-0.1c-0.4-0.4-0.9-0.7-1.4-1C-8.4-6.8-9-6.9-9.7-6.9
			c-0.9,0-1.7,0.2-2.4,0.7c-0.7,0.4-1.2,1.1-1.6,2c-0.4,0.9-0.6,2-0.6,3.2c0,1.2,0.2,2.3,0.6,3.2c0.4,0.9,1,1.6,1.8,2.2
			c0.7,0.5,1.6,0.8,2.5,0.8c0.6,0,1.1-0.1,1.6-0.3C-7.4,4.6-7,4.3-6.6,3.9c0.1-0.1,0.2-0.1,0.2-0.1c0.1,0,0.1,0.1,0.1,0.3v5
			c0,0.2,0.1,0.3,0.3,0.3h2.2c0.2,0,0.3-0.1,0.3-0.4V-6.3c0-0.1,0-0.3-0.1-0.3c-0.1-0.1-0.2-0.1-0.4-0.1h-1.9
			C-6-6.7-6.1-6.6-6.1-6.3z M-7.3,2.9c-0.4,0.2-0.8,0.3-1.3,0.3c-0.9,0-1.6-0.4-2.1-1.1c-0.5-0.7-0.8-1.7-0.8-3.1
			c0-1.4,0.3-2.4,0.8-3.1c0.5-0.7,1.2-1,2.1-1c0.5,0,0.9,0.1,1.2,0.3C-7-4.6-6.7-4.3-6.5-4c0.2,0.3,0.3,0.7,0.3,1V2
			C-6.6,2.4-7,2.7-7.3,2.9z"/>
		<path class="st0" d="M2.3,7c0-0.2,0-0.3-0.1-0.4C2.1,6.5,1.9,6.5,1.7,6.5h-2c-0.2,0-0.3,0-0.3,0.1c-0.1,0.1-0.1,0.2-0.1,0.3v2.1
			c0,0.3,0.1,0.4,0.3,0.4h2.2c0.1,0,0.2,0,0.2-0.1c0.1-0.1,0.1-0.2,0.1-0.3V7z M2.2-6.2c0-0.2,0-0.3-0.1-0.4C2-6.7,1.9-6.7,1.7-6.7
			h-1.9c-0.2,0-0.3,0-0.3,0.1c-0.1,0.1-0.1,0.2-0.1,0.3V4.5c0,0.2,0.1,0.4,0.3,0.4h2.2c0.2,0,0.3-0.1,0.3-0.3V-6.2z"/>
		<path class="st0" d="M13.1,4.2c0.8-0.6,1.4-1.3,1.7-2.2l0-0.2c0-0.1-0.1-0.2-0.3-0.2l-1.9-0.2l-0.1,0c-0.1,0-0.2,0.1-0.2,0.2
			c-0.3,0.6-0.7,1-1,1.3c-0.3,0.3-0.7,0.4-1.3,0.4C9.3,3.2,8.6,2.8,8,2.1c-0.5-0.7-0.8-1.7-0.8-3c0-1.3,0.3-2.4,0.8-3.1
			s1.3-1.1,2.2-1.1c0.6,0,1.1,0.2,1.6,0.5c0.4,0.3,0.8,0.8,1.2,1.5c0,0.1,0.1,0.1,0.1,0.1c0.1,0,0.1,0,0.2,0l1.4-0.4
			C15-3.4,15-3.6,15-3.8c-0.4-0.8-1-1.6-1.8-2.2c-0.8-0.6-1.9-0.9-3.1-0.9C9-6.9,8-6.7,7.1-6.2S5.6-5,5.1-4.1C4.6-3.2,4.4-2.1,4.4-1
			c0,1.2,0.2,2.2,0.7,3.1c0.5,0.9,1.2,1.6,2,2.1C8,4.8,9,5.1,10.1,5.1C11.3,5.1,12.3,4.8,13.1,4.2z"/>
		<path class="st0" d="M19.8-6.9c-1.1,0-2,0.3-2.6,0.9c-0.6,0.6-1,1.4-1,2.3c0,1.2,0.5,2.2,1.6,2.9c1.1,0.7,2.6,1.1,4.5,1.2l1.1,0.1
			c0.2,0,0.3,0.1,0.3,0.3v0.5c0,0.6-0.2,1.1-0.6,1.5c-0.4,0.4-0.9,0.5-1.6,0.5c-1.1,0-2-0.5-2.6-1.4C19,1.7,19,1.7,19,1.7
			c0,0-0.1-0.1-0.1-0.1c-0.1,0-0.1,0-0.2,0l-1.8,0.5c-0.1,0-0.2,0.1-0.2,0.2c0,0.1,0,0.2,0.1,0.3c0.4,0.8,1,1.4,1.9,1.9
			c0.9,0.4,1.9,0.6,3.2,0.6c1.6,0,2.8-0.3,3.6-1c0.8-0.6,1.1-1.5,1.1-2.7v-7.7c0-0.2,0-0.3-0.1-0.3c-0.1-0.1-0.1-0.1-0.3-0.1h-1.9
			c-0.1,0-0.2,0-0.3,0.1c-0.1,0.1-0.1,0.2-0.1,0.4l0,0.7c0,0.1-0.1,0.2-0.2,0.2c0,0-0.1-0.1-0.3-0.2C22.4-6.5,21.2-6.9,19.8-6.9z
			 M23.7-1.1c-0.1,0.1-0.1,0.1-0.3,0.1l-0.9-0.1c-1-0.1-1.9-0.3-2.5-0.7c-0.7-0.4-1-0.9-1-1.6c0-0.5,0.2-0.9,0.5-1.2
			C19.9-4.9,20.4-5,21-5c0.8,0,1.4,0.2,2,0.7c0.6,0.4,0.8,0.9,0.8,1.3v1.5C23.8-1.3,23.8-1.2,23.7-1.1z"/>
		<path class="st0" d="M36.8-6.3v0.7c0,0.1,0,0.2-0.1,0.2c0,0-0.1,0-0.2-0.1c-0.4-0.4-0.9-0.7-1.4-1c-0.5-0.3-1.1-0.4-1.9-0.4
			c-0.9,0-1.7,0.2-2.4,0.7c-0.7,0.4-1.2,1.1-1.6,2c-0.4,0.9-0.6,2-0.6,3.2c0,1.2,0.2,2.3,0.6,3.2c0.4,0.9,1,1.6,1.8,2.2
			c0.7,0.5,1.6,0.8,2.5,0.8C34,5.1,34.6,5,35,4.8c0.5-0.2,0.9-0.5,1.3-0.9c0.1-0.1,0.2-0.1,0.2-0.1s0.1,0.1,0.1,0.3v5
			c0,0.2,0.1,0.3,0.3,0.3h2.2c0.2,0,0.3-0.1,0.3-0.4V-6.3c0-0.1,0-0.3-0.1-0.3c-0.1-0.1-0.2-0.1-0.4-0.1h-1.9
			C36.9-6.7,36.8-6.6,36.8-6.3z M35.6,2.9c-0.4,0.2-0.8,0.3-1.3,0.3c-0.9,0-1.6-0.4-2.1-1.1c-0.5-0.7-0.8-1.7-0.8-3.1
			c0-1.4,0.3-2.4,0.8-3.1c0.5-0.7,1.2-1,2.1-1c0.4,0,0.9,0.1,1.2,0.3c0.4,0.2,0.7,0.5,0.9,0.8c0.2,0.3,0.3,0.7,0.3,1V2
			C36.3,2.4,35.9,2.7,35.6,2.9z"/>
		<path class="st0" d="M44.4-6.2c-0.9,0.5-1.5,1.2-2,2.1c-0.5,0.9-0.7,1.9-0.7,3.1c0,1.2,0.2,2.2,0.7,3.2s1.2,1.6,2,2.1
			c0.9,0.5,1.9,0.8,3,0.8c1.1,0,2.1-0.3,3-0.8c0.9-0.5,1.5-1.2,2-2.1c0.5-0.9,0.7-2,0.7-3.1c0-1.1-0.2-2.2-0.7-3.1
			c-0.5-0.9-1.2-1.6-2-2.1c-0.9-0.5-1.9-0.8-3-0.8C46.3-6.9,45.3-6.7,44.4-6.2z M49.6-3.9c0.5,0.7,0.7,1.7,0.7,3
			c0,1.3-0.2,2.3-0.7,3.1c-0.5,0.7-1.2,1.1-2.1,1.1s-1.6-0.4-2.1-1.1c-0.5-0.7-0.8-1.7-0.8-3.1c0-1.3,0.3-2.3,0.8-3
			c0.5-0.7,1.2-1,2.1-1C48.4-5,49.1-4.6,49.6-3.9z"/>
		<path class="st0" d="M55.3-6.3V4.5c0,0.2,0.1,0.4,0.3,0.4h2.1c0.2,0,0.3-0.1,0.3-0.3V3.2c0-0.1,0-0.2,0.1-0.2c0,0,0.1,0,0.2,0.1
			c0.5,0.6,1,1.1,1.6,1.4c0.6,0.3,1.1,0.5,1.7,0.5c0.5,0,0.8-0.1,0.8-0.3V2.6c0-0.2-0.1-0.3-0.3-0.3c-0.4,0.1-0.9,0.2-1.4,0.2
			c-0.4,0-0.8-0.1-1.2-0.3c-0.4-0.2-0.8-0.5-1-0.8c-0.3-0.3-0.4-0.7-0.4-1v-6.7c0-0.3-0.2-0.4-0.5-0.4h-1.9
			C55.5-6.7,55.3-6.6,55.3-6.3z"/>
		<path class="st0" d="M66.8-3.4c0.3-0.5,0.7-0.8,1.1-1.1c0.5-0.3,1-0.4,1.6-0.4c0.6,0,1.1,0.1,1.6,0.4c0.5,0.3,0.9,0.7,1.4,1.2
			c0.1,0.1,0.1,0.1,0.2,0.1c0,0,0.1,0,0.2-0.1l1.3-0.6c0.1,0,0.2-0.1,0.2-0.2c0,0,0-0.1-0.1-0.2c-0.7-0.9-1.4-1.6-2.2-2
			c-0.8-0.4-1.8-0.6-2.9-0.6c-1.1,0-2.1,0.2-3,0.7c-0.9,0.5-1.6,1.2-2.1,2.1c-0.5,0.9-0.7,1.9-0.7,3c0,1.2,0.3,2.3,0.8,3.2
			c0.5,0.9,1.2,1.6,2.1,2.2c0.9,0.5,1.8,0.8,2.9,0.8c1.1,0,2.1-0.2,2.9-0.7c0.8-0.5,1.5-1.2,1.9-2.1c0.5-0.9,0.7-2,0.7-3.2v-0.1
			c0-0.1,0-0.2-0.1-0.3c0-0.1-0.1-0.1-0.3-0.1h-7.7c-0.2,0-0.2-0.1-0.2-0.3C66.3-2.4,66.5-3,66.8-3.4z M71.5,0.1
			c0.1,0,0.2,0,0.3,0.1c0.1,0,0.1,0.1,0.1,0.3c0,0.5-0.1,0.9-0.3,1.4c-0.2,0.4-0.5,0.8-0.9,1.1s-0.9,0.4-1.4,0.4
			c-0.9,0-1.6-0.3-2.1-0.9c-0.5-0.6-0.8-1.3-0.8-2.2H71.5z"/>
		<path class="st0" d="M82.6,2.9c-0.5,0.2-1,0.3-1.6,0.3c-0.6,0-1.2-0.1-1.6-0.4c-0.4-0.3-0.6-0.6-0.6-1c0-0.2,0.1-0.5,0.3-0.7
			c0.2-0.2,0.6-0.4,1.1-0.5L82.8,0c1.1-0.3,1.9-0.7,2.4-1.3c0.5-0.6,0.8-1.2,0.8-2c0-0.7-0.2-1.4-0.6-1.9c-0.4-0.5-1-1-1.8-1.3
			c-0.8-0.3-1.6-0.4-2.6-0.4c-1.2,0-2.3,0.2-3.2,0.7c-0.9,0.4-1.5,1-1.9,1.7c-0.1,0.1-0.1,0.2-0.1,0.2c0,0.1,0,0.2,0.1,0.2l1.3,0.7
			c0.1,0.1,0.2,0.1,0.3,0.1c0.1,0,0.1,0,0.2-0.1c0.3-0.5,0.8-0.9,1.3-1.2c0.5-0.3,1.2-0.4,2-0.4c0.7,0,1.3,0.1,1.8,0.4
			c0.5,0.3,0.7,0.6,0.7,1.1c0,0.3-0.1,0.6-0.4,0.8c-0.3,0.2-0.7,0.4-1.3,0.6l-2.2,0.5c-1.1,0.3-1.9,0.7-2.4,1.2
			c-0.5,0.5-0.8,1.2-0.8,2c0,0.7,0.2,1.3,0.6,1.9c0.4,0.6,0.9,1,1.7,1.3c0.7,0.3,1.6,0.5,2.5,0.5c1,0,1.9-0.2,2.7-0.6
			s1.4-0.9,1.8-1.5c0.1-0.1,0.1-0.2,0.1-0.3c0-0.1,0-0.1-0.1-0.2l-1.4-0.7c-0.1,0-0.1,0-0.2,0c-0.1,0-0.2,0.1-0.3,0.2
			C83.5,2.4,83.1,2.7,82.6,2.9z"/>
		<path class="st0" d="M-29.7-20.5v0.5c0,0.1,0,0.1-0.1,0.1c0,0-0.1,0-0.1-0.1c-0.2-0.2-0.5-0.4-0.8-0.6c-0.3-0.2-0.6-0.2-1.1-0.2
			c-0.5,0-0.9,0.1-1.3,0.3c-0.4,0.2-0.7,0.6-0.9,1.1c-0.2,0.5-0.3,1-0.3,1.7c0,0.7,0.1,1.2,0.3,1.7c0.2,0.5,0.6,0.9,1,1.2
			c0.4,0.3,0.9,0.4,1.4,0.4c0.3,0,0.7-0.1,0.9-0.2s0.5-0.3,0.7-0.5c0.1,0,0.1-0.1,0.1-0.1c0,0,0.1,0.1,0.1,0.2v2.7
			c0,0.1,0,0.2,0.1,0.2h0.7c0.1,0,0.1-0.1,0.1-0.2v-8.3c0-0.1,0-0.1,0-0.1c0,0-0.1,0-0.2,0h-0.6C-29.6-20.7-29.7-20.6-29.7-20.5z
			 M-30.4-15.3c-0.3,0.1-0.5,0.2-0.8,0.2c-0.6,0-1.1-0.2-1.4-0.7c-0.4-0.4-0.5-1.1-0.5-1.9c0-0.8,0.2-1.4,0.5-1.8s0.8-0.6,1.4-0.6
			c0.3,0,0.6,0.1,0.8,0.2c0.3,0.1,0.4,0.3,0.6,0.5c0.1,0.2,0.2,0.4,0.2,0.7v2.8C-29.9-15.6-30.2-15.4-30.4-15.3z"/>
		<path class="st0" d="M-23.7-19c0.2-0.3,0.4-0.6,0.7-0.8c0.3-0.2,0.7-0.3,1-0.3c0.8,0,1.4,0.3,1.8,1c0,0,0.1,0,0.1,0.1
			c0,0,0.1,0,0.1,0l0.5-0.2c0.1,0,0.1-0.1,0-0.2c-0.3-0.5-0.7-0.8-1.1-1c-0.4-0.2-0.9-0.3-1.5-0.3c-0.6,0-1.1,0.1-1.5,0.4
			c-0.4,0.3-0.8,0.6-1.1,1.1c-0.3,0.5-0.4,1-0.4,1.6c0,0.7,0.1,1.2,0.4,1.7c0.3,0.5,0.6,0.9,1.1,1.1c0.4,0.3,0.9,0.4,1.5,0.4
			s1-0.1,1.5-0.4c0.4-0.2,0.8-0.6,1-1.1c0.2-0.5,0.3-1,0.3-1.7v0c0-0.1,0-0.1,0-0.2c0,0-0.1-0.1-0.1-0.1h-4.5
			c-0.1,0-0.1-0.1-0.1-0.2C-23.9-18.3-23.8-18.7-23.7-19z M-20.4-17.1c0.1,0,0.1,0,0.2,0c0,0,0,0.1,0,0.1c0,0.3-0.1,0.7-0.2,0.9
			s-0.4,0.5-0.6,0.7c-0.3,0.2-0.6,0.3-1,0.3c-0.4,0-0.7-0.1-1-0.3c-0.3-0.2-0.5-0.5-0.7-0.8c-0.2-0.3-0.2-0.6-0.2-1H-20.4z"/>
		<path class="st0" d="M-9.2-20.8c-0.6,0-1.1,0.2-1.4,0.5c-0.3,0.3-0.5,0.7-0.5,1.2c0,0.6,0.3,1.1,0.8,1.5c0.5,0.4,1.3,0.6,2.3,0.6
			l0.9,0.1c0.1,0,0.2,0.1,0.2,0.2v0.3c0,0.4-0.1,0.7-0.4,1c-0.3,0.2-0.6,0.4-1.1,0.4c-0.7,0-1.2-0.3-1.7-0.9c0,0,0-0.1-0.1-0.1
			c0,0-0.1,0-0.1,0l-0.6,0.2c0,0-0.1,0-0.1,0.1c0,0,0,0.1,0,0.1c0.2,0.4,0.6,0.7,1,1c0.4,0.2,0.9,0.3,1.5,0.3c0.8,0,1.3-0.2,1.7-0.5
			c0.4-0.4,0.6-0.8,0.6-1.5v-4.1c0-0.1,0-0.1,0-0.1c0,0-0.1,0-0.1,0h-0.6c-0.1,0-0.1,0.1-0.2,0.2l0,0.5c0,0.1,0,0.1-0.1,0.1
			c0,0-0.1,0-0.1-0.1C-7.7-20.5-8.4-20.8-9.2-20.8z M-7.1-17.5l-0.8-0.1c-0.7,0-1.3-0.2-1.7-0.4c-0.4-0.2-0.6-0.6-0.6-1
			c0-0.3,0.1-0.6,0.4-0.8c0.2-0.2,0.6-0.3,0.9-0.3c0.2,0,0.5,0,0.7,0.1c0.2,0.1,0.4,0.2,0.6,0.3c0.2,0.1,0.3,0.3,0.4,0.4
			c0.1,0.2,0.1,0.3,0.1,0.5v1C-6.9-17.6-7-17.5-7.1-17.5z"/>
		<path class="st0" d="M3.8-14.6V-15c0-0.1,0-0.1-0.1-0.2c0,0-0.1,0-0.2,0c-0.3,0-0.5,0-0.6-0.1c-0.2-0.1-0.3-0.2-0.2-0.3
			c0,0,0-0.1,0.1-0.2c0-0.1,0.1-0.2,0.1-0.3c0-0.1,0-0.2,0-0.3c0-0.6-0.2-1-0.6-1.3s-1.1-0.5-1.9-0.5c-0.6,0-0.9,0-1.2-0.1
			c-0.2-0.1-0.4-0.2-0.4-0.4c0-0.1,0.1-0.2,0.2-0.3c0.2-0.1,0.4-0.1,0.8-0.1l1.5-0.1c0.7,0,1.2-0.2,1.5-0.5c0.3-0.3,0.5-0.7,0.5-1.1
			c0-0.6-0.3-1.1-0.8-1.4c-0.5-0.3-1.2-0.5-2.2-0.5c-1,0-1.7,0.1-2.2,0.4c-0.5,0.3-0.8,0.7-0.8,1.2c0,0.5,0.4,1,1.1,1.3
			c0.1,0,0.1,0.1,0,0.1C-1.9-19.5-2-19.2-2-18.9c0,0.2,0.1,0.3,0.2,0.5c0.2,0.2,0.4,0.3,0.7,0.4c0,0,0.1,0,0.1,0.1
			c0,0,0,0.1-0.1,0.1c-0.3,0.2-0.6,0.4-0.8,0.6C-2-17-2.1-16.7-2.1-16.4c0,0.6,0.2,1.1,0.7,1.4c0.5,0.3,1.1,0.5,1.9,0.5
			c0.7,0,1.3-0.2,1.7-0.5C2.3-15,2.3-15,2.4-15c0,0,0.1,0,0.1,0.1c0.1,0.1,0.3,0.3,0.5,0.4c0.2,0.1,0.4,0.2,0.6,0.2
			C3.7-14.4,3.8-14.5,3.8-14.6z M-0.6-19.9c-0.1,0-0.3,0-0.5-0.1c-0.2-0.1-0.3-0.2-0.5-0.4c-0.1-0.2-0.2-0.3-0.2-0.5
			c0-0.4,0.2-0.7,0.6-0.9c0.4-0.2,0.9-0.3,1.7-0.3c1.3,0,2,0.4,2,1.2c0,0.3-0.1,0.5-0.3,0.6C2-20.1,1.7-20,1.3-20L-0.6-19.9z
			 M1.6-17.3C1.9-17.1,2-16.8,2-16.3c0,0.4-0.1,0.7-0.4,1C1.3-15.1,0.9-15,0.4-15c-0.5,0-0.9-0.1-1.2-0.4c-0.3-0.2-0.4-0.6-0.4-1
			c0-0.4,0.1-0.7,0.4-0.9c0.3-0.2,0.7-0.3,1.2-0.3C0.9-17.6,1.3-17.5,1.6-17.3z"/>
		<path class="st0" d="M10.4-19.7c0.3,0.2,0.6,0.4,0.9,0.8v4.3c0,0.1,0.1,0.2,0.2,0.2h0.6c0.1,0,0.2-0.1,0.2-0.2l0-5.8
			c0-0.1,0-0.2-0.1-0.2h-0.7c-0.1,0-0.1,0-0.1,0.1v0.7c0,0.1,0,0.1-0.1,0c-0.4-0.4-0.8-0.6-1.1-0.7c-0.3-0.1-0.7-0.2-1-0.2
			c-0.5,0-1,0.2-1.3,0.5C7.4-20,7.3-19.5,7.3-19v4.3c0,0.1,0.1,0.2,0.2,0.2h0.7c0.1,0,0.2-0.1,0.2-0.2v-4.1c0-0.4,0.1-0.7,0.3-0.9
			C8.8-19.9,9.1-20,9.4-20C9.8-20,10.1-19.9,10.4-19.7z"/>
		<path class="st0" d="M17.9-20.8c-0.6,0-1.1,0.2-1.4,0.5C16.1-20,16-19.6,16-19.1c0,0.6,0.3,1.1,0.8,1.5c0.5,0.4,1.3,0.6,2.3,0.6
			l0.9,0.1c0.1,0,0.2,0.1,0.2,0.2v0.3c0,0.4-0.1,0.7-0.4,1c-0.3,0.2-0.6,0.4-1.1,0.4c-0.7,0-1.2-0.3-1.7-0.9c0,0,0-0.1-0.1-0.1
			c0,0-0.1,0-0.1,0l-0.6,0.2c0,0-0.1,0-0.1,0.1c0,0,0,0.1,0,0.1c0.2,0.4,0.6,0.7,1,1c0.4,0.2,0.9,0.3,1.5,0.3c0.8,0,1.3-0.2,1.7-0.5
			c0.4-0.4,0.6-0.8,0.6-1.5v-4.1c0-0.1,0-0.1,0-0.1c0,0-0.1,0-0.1,0h-0.6c-0.1,0-0.1,0.1-0.2,0.2l0,0.5c0,0.1,0,0.1-0.1,0.1
			c0,0-0.1,0-0.1-0.1C19.4-20.5,18.7-20.8,17.9-20.8z M20-17.5l-0.8-0.1c-0.7,0-1.3-0.2-1.7-0.4s-0.6-0.6-0.6-1
			c0-0.3,0.1-0.6,0.4-0.8c0.2-0.2,0.6-0.3,0.9-0.3c0.2,0,0.5,0,0.7,0.1c0.2,0.1,0.4,0.2,0.6,0.3c0.2,0.1,0.3,0.3,0.4,0.4
			c0.1,0.2,0.1,0.3,0.1,0.5v1C20.1-17.6,20.1-17.5,20-17.5z"/>
		<path class="st0" d="M30.9-14.7v-0.5c0-0.1,0-0.1,0.1-0.1c0,0,0.1,0,0.1,0.1c0.2,0.2,0.3,0.3,0.4,0.4c0.1,0.1,0.3,0.2,0.5,0.3
			c0.2,0.1,0.5,0.1,0.8,0.1c0.5,0,0.9-0.1,1.3-0.3c0.4-0.2,0.7-0.6,0.9-1c0.2-0.5,0.3-1,0.3-1.7c0-0.7-0.1-1.3-0.3-1.8
			c-0.2-0.5-0.5-0.9-0.9-1.1s-0.9-0.4-1.4-0.4c-0.6,0-1.2,0.2-1.7,0.6C31-20.1,31-20.1,31-20.1c0,0-0.1-0.1-0.1-0.2v-2.2
			c0-0.1,0-0.2-0.1-0.2H30c-0.1,0-0.1,0.1-0.1,0.2v7.7c0,0.1,0,0.1,0,0.1c0,0,0.1,0,0.1,0h0.6C30.8-14.5,30.9-14.6,30.9-14.7z
			 M31.6-19.9c0.3-0.1,0.5-0.2,0.8-0.2c0.6,0,1,0.2,1.4,0.7c0.4,0.4,0.5,1.1,0.5,1.9c0,0.8-0.2,1.4-0.5,1.8
			c-0.3,0.4-0.8,0.6-1.3,0.6c-0.3,0-0.6-0.1-0.8-0.2c-0.2-0.1-0.4-0.3-0.6-0.5c-0.1-0.2-0.2-0.4-0.2-0.6v-2.9
			C31.1-19.6,31.4-19.7,31.6-19.9z"/>
		<path class="st0" d="M40.2-20.4c-0.4,0.3-0.8,0.6-1,1.1c-0.2,0.5-0.4,1-0.4,1.6c0,0.6,0.1,1.2,0.4,1.7c0.3,0.5,0.6,0.9,1,1.1
			c0.4,0.3,1,0.4,1.5,0.4c0.6,0,1.1-0.1,1.5-0.4c0.4-0.3,0.8-0.7,1-1.1c0.2-0.5,0.4-1,0.4-1.7c0-0.6-0.1-1.2-0.4-1.6
			c-0.2-0.5-0.6-0.9-1-1.1c-0.4-0.3-1-0.4-1.5-0.4C41.2-20.8,40.7-20.6,40.2-20.4z M43.2-19.4c0.3,0.4,0.5,1,0.5,1.8
			c0,0.8-0.2,1.4-0.5,1.8c-0.3,0.4-0.8,0.7-1.4,0.7c-0.6,0-1.1-0.2-1.4-0.7c-0.3-0.4-0.5-1-0.5-1.8c0-0.8,0.2-1.4,0.5-1.8
			c0.3-0.4,0.8-0.7,1.4-0.7C42.4-20,42.9-19.8,43.2-19.4z"/>
		<path class="st0" d="M50-15.2c-0.1,0-0.1,0-0.1-0.1V-19c0-0.3,0.1-0.6,0.2-0.7c0.1-0.1,0.3-0.2,0.6-0.2h0.8c0.1,0,0.1,0,0.1-0.1
			l0-0.4c0-0.1,0-0.1-0.1-0.2c-0.2,0-0.6-0.1-1.1-0.1c-0.5,0-0.8,0.1-1.1,0.3c-0.2,0.2-0.3,0.6-0.3,1.1v3.9c0,0.1,0,0.1-0.1,0.1
			h-0.9c-0.1,0-0.1,0-0.1,0.1v0.5c0,0.1,0,0.1,0.1,0.1h1c0.1,0,0.1,0,0.1,0.1l0.1,1.8c0,0.1,0,0.2,0.1,0.2h0.6
			c0.1,0,0.1-0.1,0.1-0.2v-1.8c0-0.1,0-0.1,0.1-0.1h1.5c0.1,0,0.1,0,0.1-0.1v-0.5c0-0.1,0-0.1-0.1-0.1H50z"/>
		<path class="st0" d="M56.7-20.8c-0.6,0-1.1,0.2-1.4,0.5c-0.3,0.3-0.5,0.7-0.5,1.2c0,0.6,0.3,1.1,0.8,1.5c0.5,0.4,1.3,0.6,2.3,0.6
			l0.9,0.1c0.1,0,0.2,0.1,0.2,0.2v0.3c0,0.4-0.1,0.7-0.4,1c-0.3,0.2-0.6,0.4-1.1,0.4c-0.7,0-1.2-0.3-1.7-0.9c0,0,0-0.1-0.1-0.1
			c0,0-0.1,0-0.1,0l-0.6,0.2c0,0-0.1,0-0.1,0.1c0,0,0,0.1,0,0.1c0.2,0.4,0.6,0.7,1,1c0.4,0.2,0.9,0.3,1.5,0.3c0.8,0,1.3-0.2,1.7-0.5
			c0.4-0.4,0.6-0.8,0.6-1.5v-4.1c0-0.1,0-0.1,0-0.1c0,0-0.1,0-0.1,0h-0.6c-0.1,0-0.1,0.1-0.2,0.2l0,0.5c0,0.1,0,0.1-0.1,0.1
			c0,0-0.1,0-0.1-0.1C58.2-20.5,57.5-20.8,56.7-20.8z M58.8-17.5L58-17.6c-0.7,0-1.3-0.2-1.7-0.4c-0.4-0.2-0.6-0.6-0.6-1
			c0-0.3,0.1-0.6,0.4-0.8c0.2-0.2,0.6-0.3,0.9-0.3c0.2,0,0.5,0,0.7,0.1c0.2,0.1,0.4,0.2,0.6,0.3c0.2,0.1,0.3,0.3,0.4,0.4
			c0.1,0.2,0.1,0.3,0.1,0.5v1C59-17.6,58.9-17.5,58.8-17.5z"/>
		<path class="st0" d="M64.1-20.7c-0.1,0-0.1,0-0.1,0c0,0,0,0.1,0,0.1v8.3c0,0.1,0,0.2,0.1,0.2h0.7c0.1,0,0.1-0.1,0.1-0.2V-15
			c0-0.1,0-0.1,0.1-0.1c0,0,0.1,0,0.1,0.1c0.5,0.5,1.1,0.7,1.9,0.7c0.8,0,1.4-0.3,1.9-0.9c0.4-0.6,0.6-1.3,0.6-2.3
			c0-1-0.2-1.8-0.7-2.4c-0.5-0.6-1.1-0.9-1.9-0.9c-0.5,0-0.9,0.1-1.2,0.3c-0.3,0.2-0.6,0.4-0.7,0.6c0,0,0,0-0.1,0c0,0-0.1,0-0.1-0.1
			l-0.1-0.6c0-0.1,0-0.1-0.1-0.1c0,0-0.1,0-0.1,0H64.1z M64.9-18.6c0-0.3,0.1-0.5,0.2-0.7c0.2-0.2,0.4-0.4,0.6-0.5
			c0.3-0.1,0.5-0.2,0.8-0.2c0.6,0,1,0.2,1.3,0.6c0.3,0.4,0.5,1,0.5,1.9c0,0.8-0.2,1.4-0.5,1.8c-0.3,0.4-0.7,0.6-1.3,0.6
			c-0.3,0-0.7-0.1-1-0.2c-0.3-0.2-0.6-0.4-0.8-0.6V-18.6z"/>
		<path class="st0" d="M74.2-20.5c0-0.1,0-0.1,0-0.2c0,0-0.1,0-0.2,0h-0.6c-0.1,0-0.1,0-0.1,0c0,0,0,0.1,0,0.1l0,8.3
			c0,0.1,0,0.2,0.1,0.2h0.7c0.1,0,0.1-0.1,0.1-0.2V-20.5z"/>
		<path class="st0" d="M79.2-19c0.2-0.3,0.4-0.6,0.7-0.8c0.3-0.2,0.7-0.3,1-0.3c0.8,0,1.4,0.3,1.8,1c0,0,0.1,0,0.1,0.1
			c0,0,0.1,0,0.1,0l0.5-0.2c0.1,0,0.1-0.1,0-0.2c-0.3-0.5-0.7-0.8-1.1-1c-0.4-0.2-0.9-0.3-1.5-0.3c-0.6,0-1.1,0.1-1.5,0.4
			c-0.4,0.3-0.8,0.6-1.1,1.1c-0.3,0.5-0.4,1-0.4,1.6c0,0.7,0.1,1.2,0.4,1.7c0.3,0.5,0.6,0.9,1.1,1.1c0.4,0.3,0.9,0.4,1.5,0.4
			c0.6,0,1-0.1,1.5-0.4c0.4-0.2,0.7-0.6,1-1.1c0.2-0.5,0.3-1,0.3-1.7v0c0-0.1,0-0.1,0-0.2c0,0-0.1-0.1-0.1-0.1h-4.5
			C79-17.8,79-17.8,79-18C79-18.3,79.1-18.7,79.2-19z M82.5-17.1c0.1,0,0.1,0,0.2,0c0,0,0,0.1,0,0.1c0,0.3-0.1,0.7-0.2,0.9
			c-0.1,0.3-0.4,0.5-0.6,0.7c-0.3,0.2-0.6,0.3-1,0.3c-0.4,0-0.7-0.1-1-0.3c-0.3-0.2-0.5-0.5-0.7-0.8c-0.2-0.3-0.2-0.6-0.2-1H82.5z"
			/>
	</g>
	<g>
		<path class="st0" d="M-30,21.6c-0.7,0-1.3-0.2-1.7-0.5c-0.4-0.3-0.6-0.8-0.6-1.3c0-0.8,0.5-1.3,1.6-1.7l2.1-0.7
			c0.9-0.3,1.5-0.7,1.9-1.1c0.4-0.5,0.6-1,0.6-1.7c0-0.9-0.3-1.7-1-2.2s-1.6-0.8-2.8-0.8c-0.9,0-1.6,0.2-2.3,0.5
			c-0.7,0.3-1.2,0.8-1.6,1.4c0,0.1-0.1,0.1-0.1,0.1c0,0.1,0,0.1,0.1,0.2l0.5,0.4c0.1,0.1,0.2,0.1,0.2,0.1c0.1,0,0.1,0,0.2-0.1
			c0.4-0.5,0.8-0.9,1.2-1.1c0.4-0.2,1-0.3,1.6-0.3c0.8,0,1.4,0.1,1.9,0.4c0.5,0.3,0.7,0.7,0.7,1.4c0,0.4-0.1,0.7-0.4,1
			c-0.2,0.3-0.7,0.5-1.3,0.7l-2.2,0.8c-0.8,0.3-1.3,0.6-1.7,1.1c-0.4,0.5-0.5,1-0.5,1.6c0,0.6,0.2,1.1,0.5,1.6
			c0.3,0.5,0.7,0.8,1.3,1.1c0.6,0.2,1.2,0.4,1.9,0.4c0.7,0,1.3-0.1,1.9-0.4c0.6-0.3,1.1-0.6,1.5-1.1c0,0,0.1-0.1,0.1-0.1
			c0,0,0-0.1-0.1-0.1l-0.7-0.5c0,0-0.1,0-0.1,0s-0.1,0-0.2,0.1C-28.2,21.3-29,21.6-30,21.6z"/>
		<path class="st0" d="M-23.1,21.1c0-0.1,0-0.2-0.1-0.2c0,0-0.1-0.1-0.2-0.1h-0.8c-0.1,0-0.2,0.1-0.2,0.2v1.2c0,0.2,0.1,0.2,0.2,0.2
			h0.9c0.1,0,0.1,0,0.1-0.1c0,0,0.1-0.1,0.1-0.2V21.1z M-23.1,12c0-0.1,0-0.2-0.1-0.2s-0.1-0.1-0.2-0.1h-0.7c-0.1,0-0.1,0-0.2,0
			s0,0.1,0,0.2v7.3c0,0.1,0.1,0.2,0.2,0.2h0.9c0.1,0,0.2-0.1,0.2-0.2V12z"/>
		<path class="st0" d="M-17.1,18.5c-0.4,0.2-0.8,0.3-1.2,0.3c-0.5,0-1-0.1-1.3-0.3c-0.3-0.2-0.5-0.5-0.5-0.9c0-0.2,0.1-0.4,0.3-0.6
			c0.2-0.2,0.5-0.3,0.9-0.5l1.8-0.6c0.6-0.2,1.1-0.4,1.4-0.8s0.5-0.8,0.5-1.2c0-0.4-0.1-0.8-0.4-1.2c-0.3-0.3-0.6-0.6-1.1-0.8
			c-0.5-0.2-1-0.3-1.6-0.3c-0.7,0-1.4,0.1-2,0.4c-0.6,0.3-1,0.7-1.2,1.2c0,0,0,0.1,0,0.1c0,0,0,0.1,0.1,0.1l0.6,0.3
			c0.1,0.1,0.2,0.1,0.2,0c0.5-0.8,1.3-1.3,2.4-1.3c0.6,0,1,0.1,1.4,0.4c0.4,0.2,0.6,0.5,0.6,0.9c0,0.3-0.1,0.5-0.3,0.7
			c-0.2,0.2-0.6,0.3-1.1,0.5l-1.5,0.4c-0.7,0.2-1.2,0.4-1.5,0.8c-0.3,0.3-0.5,0.7-0.5,1.2c0,0.4,0.1,0.8,0.4,1.2s0.6,0.6,1,0.8
			c0.5,0.2,1,0.3,1.5,0.3c0.6,0,1.2-0.1,1.7-0.4c0.5-0.2,0.9-0.6,1.2-1c0.1-0.1,0.1-0.2,0-0.2l-0.6-0.3c0,0-0.1,0-0.1,0
			c0,0-0.1,0-0.1,0.1C-16.4,18.1-16.7,18.3-17.1,18.5z"/>
		<path class="st0" d="M-11.4,18.6c-0.1,0-0.1,0-0.1-0.1v-4.6c0-0.4,0.1-0.7,0.2-0.9c0.1-0.2,0.4-0.2,0.7-0.2h1
			c0.1,0,0.2-0.1,0.2-0.2l0-0.5c0-0.1-0.1-0.2-0.2-0.2c-0.3,0-0.7-0.1-1.4-0.1c-0.6,0-1.1,0.1-1.3,0.4c-0.3,0.3-0.4,0.7-0.4,1.4v4.9
			c0,0.1,0,0.2-0.1,0.2H-14c-0.1,0-0.2,0-0.2,0.1v0.6c0,0.1,0,0.1,0.1,0.1h1.2c0.1,0,0.1,0,0.1,0.1l0.2,2.3c0,0.1,0.1,0.2,0.2,0.2
			h0.7c0.1,0,0.2-0.1,0.2-0.2v-2.3c0-0.1,0-0.1,0.1-0.1h1.8c0.1,0,0.2,0,0.2-0.1v-0.6c0-0.1-0.1-0.1-0.2-0.1H-11.4z"/>
		<path class="st0" d="M-6.8,13.8c0.2-0.4,0.5-0.7,0.9-0.9c0.4-0.2,0.8-0.3,1.3-0.3c1,0,1.7,0.4,2.3,1.2c0,0,0.1,0.1,0.1,0.1
			c0,0,0.1,0,0.1,0l0.6-0.3c0.1,0,0.1-0.1,0-0.2c-0.4-0.6-0.8-1-1.4-1.3s-1.1-0.4-1.9-0.4c-0.7,0-1.3,0.2-1.9,0.5
			c-0.6,0.3-1,0.8-1.3,1.4c-0.3,0.6-0.5,1.3-0.5,2c0,0.8,0.2,1.5,0.5,2.2s0.8,1.1,1.3,1.4c0.6,0.3,1.2,0.5,1.9,0.5
			c0.7,0,1.3-0.2,1.8-0.5c0.5-0.3,0.9-0.8,1.2-1.4s0.4-1.3,0.4-2.1v-0.1c0-0.1,0-0.2,0-0.2c0,0-0.1-0.1-0.2-0.1H-7
			c-0.1,0-0.1-0.1-0.1-0.2C-7.2,14.7-7.1,14.2-6.8,13.8z M-2.7,16.2c0.1,0,0.2,0,0.2,0c0,0,0,0.1,0,0.2c0,0.4-0.1,0.8-0.3,1.2
			c-0.2,0.4-0.4,0.7-0.8,0.9c-0.3,0.2-0.7,0.3-1.2,0.3c-0.5,0-0.9-0.1-1.3-0.4c-0.4-0.2-0.6-0.6-0.8-1c-0.2-0.4-0.3-0.8-0.3-1.3
			H-2.7z"/>
		<path class="st0" d="M0.5,12v7.3c0,0.1,0.1,0.2,0.2,0.2h0.9c0.1,0,0.1-0.1,0.1-0.2v-0.8c0-0.1,0-0.1,0.1,0c0.5,0.4,1,0.7,1.3,0.9
			c0.4,0.2,0.8,0.3,1.2,0.3c0.5,0,1-0.1,1.3-0.4c0.4-0.2,0.6-0.5,0.7-0.9c0,0,0,0,0.1,0c0,0,0.1,0,0.1,0.1c0.5,0.4,1,0.7,1.4,0.9
			c0.4,0.2,0.8,0.3,1.3,0.3c0.7,0,1.2-0.2,1.6-0.6c0.4-0.4,0.6-0.9,0.6-1.6V12c0-0.2-0.1-0.2-0.2-0.2h-0.8c-0.1,0-0.2,0.1-0.2,0.2
			v5.2c0,0.5-0.1,0.9-0.3,1.1c-0.2,0.3-0.6,0.4-1,0.4c-0.4,0-0.8-0.1-1.1-0.3c-0.3-0.2-0.7-0.4-1-0.7c-0.1-0.1-0.1-0.1-0.2-0.2
			c0-0.1,0-0.1,0-0.2V12c0-0.2-0.1-0.2-0.2-0.2H5.5c-0.1,0-0.2,0.1-0.2,0.2v5.2c0,1-0.5,1.5-1.4,1.5c-0.4,0-0.7-0.1-1.1-0.3
			c-0.3-0.2-0.7-0.5-1.2-0.9V12c0-0.1,0-0.1-0.1-0.2s-0.1-0.1-0.2-0.1H0.7C0.5,11.8,0.5,11.8,0.5,12z"/>
		<path class="st0" d="M15.5,11.6c-0.8,0-1.3,0.2-1.8,0.6c-0.4,0.4-0.6,0.9-0.6,1.5c0,0.8,0.3,1.4,1,1.8c0.7,0.4,1.6,0.7,2.8,0.8
			l1.1,0.1c0.2,0,0.2,0.1,0.2,0.2V17c0,0.5-0.2,0.9-0.5,1.2c-0.3,0.3-0.8,0.5-1.3,0.5c-0.9,0-1.5-0.4-2.1-1.2c0,0-0.1-0.1-0.1-0.1
			s-0.1,0-0.1,0l-0.8,0.3c0,0-0.1,0.1-0.1,0.1c0,0,0,0.1,0,0.1c0.3,0.5,0.7,0.9,1.2,1.2c0.5,0.3,1.2,0.4,1.9,0.4
			c0.9,0,1.7-0.2,2.2-0.7c0.5-0.4,0.8-1,0.8-1.8V12c0-0.1,0-0.1,0-0.2c0,0-0.1,0-0.2,0h-0.7c-0.1,0-0.2,0.1-0.2,0.2l0,0.7
			c0,0.1,0,0.1-0.1,0.1c0,0-0.1,0-0.1-0.1C17.4,12,16.5,11.6,15.5,11.6z M18.1,15.7l-0.9-0.1c-0.9-0.1-1.6-0.2-2.1-0.5
			c-0.5-0.3-0.7-0.7-0.7-1.2c0-0.4,0.1-0.7,0.4-1c0.3-0.2,0.7-0.4,1.2-0.4c0.3,0,0.6,0.1,0.9,0.2c0.3,0.1,0.5,0.3,0.8,0.4
			c0.2,0.2,0.4,0.4,0.5,0.6c0.1,0.2,0.2,0.4,0.2,0.6v1.2C18.3,15.6,18.2,15.7,18.1,15.7z"/>
		<path class="st0" d="M30,12v0.6c0,0.1,0,0.1-0.1,0.1c0,0-0.1,0-0.1-0.1c-0.3-0.3-0.6-0.5-1-0.7c-0.3-0.2-0.8-0.3-1.3-0.3
			c-0.6,0-1.2,0.1-1.7,0.4c-0.5,0.3-0.9,0.7-1.1,1.3c-0.3,0.6-0.4,1.3-0.4,2.1c0,0.8,0.1,1.5,0.4,2.2c0.3,0.6,0.7,1.1,1.2,1.4
			s1.1,0.5,1.8,0.5c0.4,0,0.8-0.1,1.1-0.2c0.3-0.1,0.6-0.3,0.9-0.6c0.1-0.1,0.1-0.1,0.2-0.1c0,0,0.1,0.1,0.1,0.2v3.4
			c0,0.1,0.1,0.2,0.2,0.2H31c0.1,0,0.2-0.1,0.2-0.2V12c0-0.1,0-0.1,0-0.2s-0.1-0.1-0.2-0.1h-0.7C30.1,11.8,30,11.8,30,12z M29,18.5
			c-0.3,0.2-0.7,0.2-1,0.2c-0.7,0-1.3-0.3-1.8-0.8c-0.4-0.6-0.7-1.3-0.7-2.3c0-1,0.2-1.8,0.7-2.3c0.4-0.5,1-0.8,1.7-0.8
			c0.4,0,0.7,0.1,1,0.3c0.3,0.2,0.6,0.4,0.7,0.7c0.2,0.3,0.3,0.5,0.3,0.8v3.5C29.6,18.1,29.3,18.3,29,18.5z"/>
		<path class="st0" d="M34.6,13.8c0.2-0.4,0.5-0.7,0.9-0.9c0.4-0.2,0.8-0.3,1.3-0.3c1,0,1.7,0.4,2.3,1.2c0,0,0.1,0.1,0.1,0.1
			c0,0,0.1,0,0.1,0l0.6-0.3c0.1,0,0.1-0.1,0-0.2c-0.4-0.6-0.8-1-1.4-1.3c-0.5-0.3-1.1-0.4-1.9-0.4c-0.7,0-1.3,0.2-1.9,0.5
			c-0.6,0.3-1,0.8-1.3,1.4c-0.3,0.6-0.5,1.3-0.5,2c0,0.8,0.2,1.5,0.5,2.2c0.3,0.6,0.8,1.1,1.3,1.4c0.6,0.3,1.2,0.5,1.9,0.5
			c0.7,0,1.3-0.2,1.8-0.5c0.5-0.3,0.9-0.8,1.2-1.4c0.3-0.6,0.4-1.3,0.4-2.1v-0.1c0-0.1,0-0.2,0-0.2c0,0-0.1-0.1-0.2-0.1h-5.6
			c-0.1,0-0.1-0.1-0.1-0.2C34.2,14.7,34.3,14.2,34.6,13.8z M38.7,16.2c0.1,0,0.2,0,0.2,0c0,0,0,0.1,0,0.2c0,0.4-0.1,0.8-0.3,1.2
			c-0.2,0.4-0.4,0.7-0.8,0.9c-0.3,0.2-0.7,0.3-1.2,0.3c-0.5,0-0.9-0.1-1.3-0.4c-0.4-0.2-0.6-0.6-0.8-1c-0.2-0.4-0.3-0.8-0.3-1.3
			H38.7z"/>
	</g>
	<g id="_x31_1_6_">
		<g>
			<path class="st0" d="M-44.3-0.8c-0.8-9.8-8.8-17.3-18.6-17.7v-3.8C-51-22-41.1-12.7-40.4-0.8H-44.3z"/>
		</g>
		<g>
			<path class="st1" d="M-48.4,17.9l-2.6-2.5c4.1-3.5,6.7-8.4,6.8-14.3h3.8C-40.6,8-43.6,13.8-48.4,17.9z"/>
			<path class="st1" d="M-40,0.7h-4.6l0,0.4c-0.1,5.5-2.5,10.5-6.6,14.1l-0.3,0.3l3.2,3l0.3-0.2c5-4.4,7.9-10.5,8.1-17.1L-40,0.7z
				 M-43.8,1.5h3c-0.3,6.2-2.9,11.8-7.5,15.9l-2.1-2C-46.4,11.8-44,6.9-43.8,1.5z"/>
		</g>
		<g>
			<path class="st2" d="M-83,0.8c0,6.1,2.8,11.5,7.2,15.1l-2.4,2.3c-5-4.2-8.2-10.5-8.2-17.6c0-12.3,9.6-22.3,21.7-23v3.8
				C-74.8-18-83-9.6-83,0.8z"/>
			<path class="st2" d="M-64.4-22.8l-0.4,0c-12.4,0.7-22.1,10.9-22.1,23.4c0,6.9,3,13.4,8.4,17.9l0.3,0.2l3-2.8l-0.3-0.3
				c-4.5-3.6-7.1-9-7.1-14.8c0-10.1,7.9-18.4,17.9-19l0.4,0V-22.8z M-78.2,17.7c-5-4.3-7.8-10.5-7.8-17.1c0-11.9,9.2-21.7,20.9-22.6
				v3c-4.8,0.4-9.4,2.5-12.8,6.1c-3.5,3.7-5.5,8.5-5.5,13.6c0,5.8,2.6,11.3,7,15.1L-78.2,17.7z"/>
		</g>
		<g>
			<path class="st0" d="M-63.4,23.6c-4.9,0-9.5-1.6-13.3-4.2l2.5-2.3c3,2,6.7,3.1,10.6,3.1c4.1,0,7.9-1.3,11-3.5l2.7,2.5
				C-53.7,22-58.3,23.6-63.4,23.6z"/>
		</g>
		<g>
			<g>
				<rect x="-73.6" y="-7.3" class="st3" width="1.3" height="12.1"/>
			</g>
			<g>
				<rect x="-65.9" y="-7.3" class="st3" width="1.5" height="12.1"/>
			</g>
			<g>
				<rect x="-69.8" y="-7.3" class="st3" width="1.5" height="18"/>
			</g>
			<g>
				<rect x="-62.1" y="-7.3" class="st3" width="1.5" height="9.3"/>
			</g>
			<g>
				<rect x="-54.1" y="-7.3" class="st3" width="1.5" height="12.1"/>
			</g>
			<g>
				<rect x="-58" y="-7.3" class="st3" width="1.3" height="18"/>
			</g>
		</g>
	</g>
</symbol>
<use xlink:href="#logo"  width="173.4" height="46.9" id="XMLID_13_" x="-87.4" y="-23.3" transform="matrix(1.467 0 0 -1.467 138.9104 45.6287)" style="overflow:visible;"/>
</svg>
