<?xml version="1.0" encoding="utf-8"?>
<!-- Generator: Adobe Illustrator 24.0.0, SVG Export Plug-In . SVG Version: 6.00 Build 0)  -->
<!DOCTYPE svg PUBLIC "-//W3C//DTD SVG 1.1//EN" "http://www.w3.org/Graphics/SVG/1.1/DTD/svg11.dtd" [
	<!ENTITY ns_extend "http://ns.adobe.com/Extensibility/1.0/">
	<!ENTITY ns_ai "http://ns.adobe.com/AdobeIllustrator/10.0/">
	<!ENTITY ns_graphs "http://ns.adobe.com/Graphs/1.0/">
	<!ENTITY ns_vars "http://ns.adobe.com/Variables/1.0/">
	<!ENTITY ns_imrep "http://ns.adobe.com/ImageReplacement/1.0/">
	<!ENTITY ns_sfw "http://ns.adobe.com/SaveForWeb/1.0/">
	<!ENTITY ns_custom "http://ns.adobe.com/GenericCustomNamespace/1.0/">
	<!ENTITY ns_adobe_xpath "http://ns.adobe.com/XPath/1.0/">
]>
<svg version="1.1" id="Layer_1" xmlns:x="&ns_extend;" xmlns:i="&ns_ai;" xmlns:graph="&ns_graphs;"
	 xmlns="http://www.w3.org/2000/svg" xmlns:xlink="http://www.w3.org/1999/xlink" x="0px" y="0px" width="24.4px" height="28.1px"
	 viewBox="0 0 24.4 28.1" style="enable-background:new 0 0 24.4 28.1;" xml:space="preserve">
<style type="text/css">
	.st0{fill:#3BB2E1;}
	.st1{fill:#0F6CB6;}
	.st2{fill:#FFFFFF;}
</style>
<metadata>
	<sfw  xmlns="&ns_sfw;">
		<slices></slices>
		<sliceSourceBounds  bottomLeftOrigin="true" height="28.1" width="24.4" x="677.6" y="-400"></sliceSourceBounds>
	</sfw>
</metadata>
<symbol  id="ic_x5F_marker" viewBox="-6.1 -7 12.2 14">
	<g>
		<path class="st0" d="M6.1,0.9c0,3.6-3.1,6.5-6.8,6C-3.4,6.6-5.6,4.5-6,1.8C-6.3-0.6-5.3-2.7-3.6-4h0l3.5-2.9C0-7,0.3-7,0.5-6.9
			L3.6-4h0C5.1-2.8,6.1-1.1,6.1,0.9z"/>
		<path class="st1" d="M4.9,0.3c0,3.1-2.8,5.5-6,4.8c-1.9-0.4-3.4-2-3.8-3.9c-0.4-2,0.5-3.8,1.9-4.8h0l2.8-2.3
			c0.2-0.2,0.4-0.1,0.6,0l2.5,2.3h0C4.1-2.7,4.9-1.3,4.9,0.3z"/>
		<circle class="st2" cx="0" cy="0.1" r="2.9"/>
		<circle class="st1" cx="0" cy="0.1" r="2"/>
	</g>
</symbol>
<use xlink:href="#ic_x5F_marker"  width="12.2" height="14" id="XMLID_4_" x="-6.1" y="-7" transform="matrix(2.0112 0 0 -2.0112 12.2233 14.056)" style="overflow:visible;"/>
</svg>
