<?xml version="1.0" encoding="UTF-8" standalone="no"?>
<!-- Created with Inkscape (http://www.inkscape.org/) -->

<svg
   xmlns:dc="http://purl.org/dc/elements/1.1/"
   xmlns:cc="http://creativecommons.org/ns#"
   xmlns:rdf="http://www.w3.org/1999/02/22-rdf-syntax-ns#"
   xmlns:svg="http://www.w3.org/2000/svg"
   xmlns="http://www.w3.org/2000/svg"
   xmlns:sodipodi="http://sodipodi.sourceforge.net/DTD/sodipodi-0.dtd"
   xmlns:inkscape="http://www.inkscape.org/namespaces/inkscape"
   width="99.007713mm"
   height="97.986427mm"
   viewBox="0 0 99.007711 97.98643"
   version="1.1"
   id="svg8"
   inkscape:version="0.92.3 (2405546, 2018-03-11)"
   sodipodi:docname="dibujo.svg">
  <defs
     id="defs2">
    <clipPath
       clipPathUnits="userSpaceOnUse"
       id="clipPath828">
      <path
         style="opacity:0.247;fill:#ff0000;fill-opacity:1;stroke:none;stroke-width:0;stroke-miterlimit:4;stroke-dasharray:none;stroke-opacity:1"
         id="path830"
         sodipodi:type="arc"
         sodipodi:cx="-15.133663"
         sodipodi:cy="152.82358"
         sodipodi:rx="47.908062"
         sodipodi:ry="48.108509"
         sodipodi:start="6.143716"
         sodipodi:end="6.1434892"
         d="m 32.309207,146.13565 a 47.908062,48.108509 0 0 1 -40.7801166,54.32892 47.908062,48.108509 0 0 1 -54.1048684,-40.94766 47.908062,48.108509 0 0 1 40.773981,-54.33356 47.908062,48.108509 0 0 1 54.109493,40.94149 l -47.441359,6.69874 z" />
    </clipPath>
  </defs>
  <sodipodi:namedview
     id="base"
     pagecolor="#ffffff"
     bordercolor="#666666"
     borderopacity="1.0"
     inkscape:pageopacity="0.0"
     inkscape:pageshadow="2"
     inkscape:zoom="1"
     inkscape:cx="33.535653"
     inkscape:cy="226.99293"
     inkscape:document-units="mm"
     inkscape:current-layer="g953"
     showgrid="false"
     fit-margin-top="0"
     fit-margin-left="0"
     fit-margin-right="0"
     fit-margin-bottom="0"
     inkscape:window-width="1366"
     inkscape:window-height="705"
     inkscape:window-x="-8"
     inkscape:window-y="-8"
     inkscape:window-maximized="1" />
  <metadata
     id="metadata5">
    <rdf:RDF>
      <cc:Work
         rdf:about="">
        <dc:format>image/svg+xml</dc:format>
        <dc:type
           rdf:resource="http://purl.org/dc/dcmitype/StillImage" />
        <dc:title></dc:title>
      </cc:Work>
    </rdf:RDF>
  </metadata>
  <g
     inkscape:label="Capa 1"
     inkscape:groupmode="layer"
     id="layer1"
     transform="translate(62.770259,-79.228408)">
    <g
       id="g832"
       transform="translate(2.8145867,-12.017035)">
      <g
         id="g953"
         transform="translate(8.4666666,4.4979166)">
        <g
           id="g958"
           transform="translate(2.1166667,-32.808348)">
          <path
             style="fill:#f3d56a;stroke-width:0.26458332"
             d="m 10.247108,150.38823 c -0.9638498,-2.04638 -4.4359598,-6.90279 -6.7256298,-9.40709 -3.64119002,-3.98253 -7.39208,-6.76623 -12.2632901,-9.10113 -1.14015,-0.54651 -2.0730101,-1.14189 -2.0730101,-1.32307 0,-0.55906 1.6018801,-4.42133 2.0047701,-4.83367 0.33409,-0.34192 0.695,-0.23365 2.9581901,0.8875 3.20492,1.58767 6.98926,4.04792 9.58913,6.23403 1.0914,0.91771 2.1673257,1.76973 2.5169487,2.09865 2.1594855,1.97086 10.6688311,13.05566 10.0600511,14.04069 -0.22272,0.36037 -4.60357,2.39628 -5.15629,2.39628 -0.25306,0 -0.64423,-0.42609 -0.91087,-0.99219 z m -52.22721,-20.14402 c -0.37651,-0.23839 -2.22071,-4.81411 -2.08394,-5.17055 0.064,-0.16687 1.11217,-0.62426 2.32918,-1.01642 7.84034,-2.52641 16.16255,-2.98599 24.43775,-1.34954 2.61506,0.51714 6.24407,1.6289 6.65966,2.04021 0.42445,0.42008 -1.48162,5.03038 -2.13209,5.15699 -0.24871,0.0484 -1.25009,-0.15153 -2.2253,-0.44431 -3.6766,-1.10381 -5.72667,-1.40162 -10.63664,-1.54515 -5.56673,-0.16272 -9.29507,0.30587 -13.69719,1.72151 -1.31691,0.4235 -2.51006,0.69676 -2.65143,0.60726 z"
             id="path842"
             inkscape:connector-curvature="0"
             sodipodi:nodetypes="cccscsccsscccsscccccc" />
          <path
             style="fill:#8da524;stroke-width:0.26458332"
             d="m -71.862122,183.54204 c -0.15285,-0.40019 -0.56103,-1.91823 -0.90708,-3.37344 -1.79231,-7.53715 -1.70508,-15.38035 0.25741,-23.14357 0.64584,-2.55484 2.08823,-6.53342 2.53522,-6.99299 0.22234,-0.22859 5.02268,1.88133 5.01777,2.20549 -10e-4,0.0824 -0.47075,1.47654 -1.04333,3.09808 -2.71536,7.6899 -3.10496,16.25939 -1.10165,24.23158 0.49463,1.96837 0.63364,2.94126 0.44216,3.09456 -0.38193,0.30577 -4.05447,1.60789 -4.53494,1.60789 -0.21321,0 -0.51271,-0.32742 -0.66556,-0.7276 z m 5.303,-34.15419 c -2.91305,-1.41212 -2.78504,-1.16944 -1.67424,-3.17413 3.46653,-6.25612 8.32146,-11.6794 14.28788,-15.96051 2.75321,-1.97552 7.77262,-4.754 8.42182,-4.66188 0.37147,0.0527 0.75549,0.66352 1.3767,2.18977 0.47383,1.16417 0.86562,2.29526 0.87064,2.51354 0.006,0.24052 -1.0709,0.95234 -2.73228,1.80679 -6.65943,3.42499 -13.30682,9.86434 -16.85289,16.32546 -0.5965,1.08684 -1.22261,1.96576 -1.39135,1.95315 -0.16875,-0.0126 -1.20657,-0.4591 -2.30628,-0.99219 z"
             id="path838"
             inkscape:connector-curvature="0"
             sodipodi:nodetypes="ccccccccscccsccccccc" />
          <path
             style="fill:#c82e13;stroke-width:0.26458332"
             d="m 15.715866,184.12325 c -1.22209,-0.44004 -2.325807,-0.90744 -2.452711,-1.03867 -0.134233,-0.13881 0.0076,-1.04975 0.339049,-2.17808 2.297652,-7.82101 2.150381,-16.91138 -0.398138,-24.57447 -1.201644,-3.6132 -1.330123,-3.2197 1.448416,-4.43656 1.342321,-0.58787 2.538681,-1.00594 2.658578,-0.92905 0.324524,0.20819 1.724264,4.42795 2.41333,7.27543 1.320305,5.45597 1.601277,12.36703 0.73608,18.10477 -0.523404,3.471 -1.658312,7.79127 -2.168534,8.25491 -0.283246,0.25742 -0.798609,0.16171 -2.57607,-0.47828 z m -5.468758,-33.73502 c -1.2609933,-2.3788 -3.1003334,-5.10959 -5.3365968,-7.76014 -0.2067494,-0.24505 -0.4168914,-0.48941 -0.6302829,-0.73275 -0.1198811,-0.1367 -0.3988727,-0.51076 -0.7487134,-0.91358 -0.2798252,-0.3222 -0.6109351,-0.65388 -0.8981652,-0.96327 -0.4090609,-0.44063 -0.817184,-0.76594 -0.8169956,-0.82386 5.21e-4,-0.14944 1.9964519,-1.19953 3.0307839,-2.19208 l 1.7749197,-1.69033 c 0.2106619,0.18431 0.3899944,0.35393 0.6023344,0.58287 l 0.6518305,0.68655 c 0.5495158,0.57566 1.1626618,1.16062 1.6639632,1.75425 0.6352852,0.75231 1.3079642,1.60695 1.9753532,2.5007 2.566102,3.43645 4.852736,7.07348 4.836189,8.07096 -0.0052,0.31265 -2.554951,1.47553 -3.961835,2.06377 -0.356299,0.14898 -0.647504,0.24468 -0.795894,0.29962 -0.196939,0.0729 -0.360819,0.13653 -0.506849,0.0959 -0.402559,-0.11205 -0.64053,-0.63059 -0.840042,-0.9786 z"
             id="path834"
             inkscape:connector-curvature="0"
             sodipodi:nodetypes="ssccccsccscsssscccccsssssscc" />
        </g>
      </g>
    </g>
  </g>
</svg>
